<?xml version="1.0" encoding="UTF-8" standalone="no"?>
<svg
   xmlns:dc="http://purl.org/dc/elements/1.1/"
   xmlns:cc="http://creativecommons.org/ns#"
   xmlns:rdf="http://www.w3.org/1999/02/22-rdf-syntax-ns#"
   xmlns:svg="http://www.w3.org/2000/svg"
   xmlns="http://www.w3.org/2000/svg"
   width="73.926651mm"
   height="72.407883mm"
   viewBox="0 0 73.926649 72.407883"
   version="1.1"
   id="svg8">
  <defs
     id="defs2" />
  <metadata
     id="metadata5">
    <rdf:RDF>
      <cc:Work
         rdf:about="">
        <dc:format>image/svg+xml</dc:format>
        <dc:type
           rdf:resource="http://purl.org/dc/dcmitype/StillImage" />
        <dc:title></dc:title>
      </cc:Work>
    </rdf:RDF>
  </metadata>
  <g
     id="layer1"
     transform="translate(45.311933,-49.834307)">
    <g
       id="g1378"
       transform="matrix(1.378728,0,0,1.378728,-79.238333,13.337998)">
      <path
         id="path56"
         style="fill:#253d7a;fill-opacity:1;fill-rule:nonzero;stroke:none;stroke-width:0.115421"
         d="m 35.940796,56.048166 c -1.072151,0.679833 -1.250696,2.041807 -1.279101,3.205255 -0.0086,3.395701 0.0041,6.791402 0.0041,10.183639 3.130416,-0.01731 6.265265,0.02424 9.400112,-0.008 2.141185,-0.04271 4.327383,-1.180761 5.337783,-3.115226 1.523909,-2.92709 1.225892,-7.0511 -1.37871,-9.279888 -2.133105,-1.789034 -5.077277,-1.565117 -7.677838,-1.581275 -1.465737,0.06117 -3.101491,-0.244694 -4.406296,0.595575 z M 35.646829,35.880568 c -0.877826,0.775632 -0.952227,2.017568 -0.985134,3.107147 -0.0086,2.798972 0.0082,5.59448 0,8.393451 2.724606,-0.01267 5.449591,0.03694 8.174693,-0.01267 1.631136,-0.03232 3.275085,-0.744469 4.27325,-2.061429 1.967129,-2.683549 1.855285,-7.1065 -0.948187,-9.177163 -1.921538,-1.403525 -4.414873,-1.011092 -6.642623,-1.072266 -1.300223,0.03232 -2.852989,-0.174285 -3.871999,0.822956 z M 24.615514,31.9597 c -0.178543,-2.923627 2.488324,-5.562162 5.386938,-5.487138 4.418936,0 8.837466,-0.0035 13.255917,0 4.352661,0.09926 8.956823,1.379287 12.033614,4.61686 4.746248,4.895025 4.46035,13.600115 -0.430637,18.295461 -0.575261,0.539019 -1.183994,1.031868 -1.780493,1.540877 2.518152,1.262711 4.849551,3.088679 6.103837,5.672967 2.273687,4.642253 2.000022,10.559913 -0.894056,14.875523 -3.184479,4.728819 -9.102024,6.732535 -14.593202,6.857191 -6.356723,0.02078 -12.717509,0 -19.077861,0.008 -0.0041,-15.458401 0.0041,-30.916803 -0.0041,-46.37982 v 0" />
      <path
         id="path58"
         style="fill:#52aee5;fill-opacity:1;fill-rule:nonzero;stroke:none;stroke-width:0.115421"
         d="m 70.25713,66.571145 c 3.623079,-1.118434 7.739014,1.755561 7.934065,5.541385 0.376285,3.328756 -2.30612,6.609036 -5.661419,6.8318 -3.307979,0.422442 -6.591728,-2.214939 -6.877971,-5.53677 -0.435138,-3.018273 1.635526,-6.111569 4.605325,-6.836415 v 0" />
    </g>
  </g>
</svg>
