<svg version="1.1" id="Layer_1" xmlns="http://www.w3.org/2000/svg" xmlns:xlink="http://www.w3.org/1999/xlink" x="0px" y="0px" viewBox="0 0 59.3 59.3" style="enable-background:new 0 0 59.3 59.3;" xml:space="preserve">
 <style type="text/css">
  .st0{fill:#531F59;}
	.st1{fill:#FFFFFF;}
	.st2{fill:#FBFBFB;}
	.st3{fill:#FBBA00;}
 </style>
 <g id="surface2">
  <path class="st0" d="M29.7,59.3c16.4,0,29.7-13.3,29.7-29.7S46,0,29.7,0C13.3,0,0,13.3,0,29.7S13.3,59.3,29.7,59.3">
  </path>
  <path class="st1" d="M33.7,7.3L33.7,7.3c-1.2-0.2-1.8,0.6-1.8,1.4c0,0.4,0.2,0.8,0.5,1.1l0,0c3.6,3.4,5.8,8,5.8,13.1
		c0,0.8-0.1,1.6-0.2,2.4l0,0.1c-0.1,0.6-0.2,1.1-0.3,1.4c-0.2,0.6-0.3,0.9-0.3,0.9c-0.3,0.6-0.7,1.2-1.1,1.6c-0.3,0.3-0.5,0.6-1,1
		c-0.1,0.1-0.3,0.2-0.4,0.3c-0.7,0.5-1.4,1-2,1.3c-0.4,0.2-0.7,0.4-1,0.5c-0.4,0.2-0.8,0.4-1.1,0.5c-0.3,0.2-0.6,0.5-0.6,0.8
		c0,0.4,0.2,0.8,0.5,1.1c0.2,0.2,0.9,0.6,1.1,1.1c0.1,0.3,0.1,0.6-0.2,0.9l-0.1,0.1c-0.5,0.4-0.8,0.6-1,0.8
		c-0.3,0.2-0.4,0.3-0.4,0.5c0,0.5,0.3,0.7,0.6,1c0.4,0.4,1.3,1,2.4,1.4c0.7,0.3,1.5,0.5,2.3,0.5c0.2,0,0.3,0,0.5,0
		c0.6,0,0.1,0.3,0.1,0.3c-3.5,1.8-6.5-0.8-7.3-1.6c-0.1-0.1-0.2-0.2-0.2-0.2c-0.6-0.4-1.4,0-1.4,0l-0.1,0c-2.6,1.2-5.5,1.8-8.6,1.8
		c-1.7,0-3.5-0.2-5.1-0.6c-0.1,0-0.2,0-0.3,0c-0.8,0-1.4,0.6-1.4,1.4c0,0.3,0.1,0.6,0.3,0.9l0,0.1c4.1,5.2,10.5,8.5,17.7,8.5
		c12.5,0,22.6-10,22.6-22.4C51.9,18.3,44.1,9.3,33.7,7.3 M42.1,33.3c0,0-1.1,0.5-2.3-0.2c0,0,0,0,0,0l0,0c0,0,0,0,0,0
		c-1.2-0.7-1.3-1.9-1.3-1.9s-0.1-1.7,0.3-0.6c0.5,1.1,1.4,1.6,1.4,1.6l0,0c0,0,0.9,0.6,2.1,0.5C43.6,32.6,42.1,33.3,42.1,33.3">
  </path>
  <path class="st2" d="M33.6,7.3C33.7,7.3,33.5,7.2,33.6,7.3">
  </path>
  <path class="st3" d="M18,32.4c0.4,0.8,0.8,1.7,1.2,2.9c0,0-1.3-0.9-2.6-1.8c-1,1.7-1.6,2.9-1.6,2.9c0-1.1,0-2.1,0.1-3.1
		c-0.8,0.3-1.7,0.4-2.5,0.7c0,0,0.8-1,2.1-1.9c0,0-0.8-0.6-1.5-1.3c0,0,0.9,0,2.3,0.1c0.3-1.3,0.5-2.1,0.5-2.1c0.5,0.8,1,1.7,1,1.7
		c1-0.8,2.4-1.4,2.4-1.4c-0.5,0.7-0.8,1.3-1.3,2c1,0.1,2,0.3,3.2,0.6C21.2,31.6,20,32.1,18,32.4">
  </path>
  <path class="st3" d="M16.9,20.2c2.7,0,4.4-0.3,4.4-0.3c-1.5-0.6-2.8-1.1-4.1-1.5c0.8-0.9,1.4-1.7,2.2-2.5c0,0-2,0.5-3.5,1.3
		c0,0-0.4-1.3-0.9-2.5c0,0-0.5,1-1.2,2.8c-1.8-0.5-3-0.6-3-0.6c0.8,1.1,1.6,2.2,1.6,2.2c-1.9,1.1-3.2,2.2-3.2,2.2
		c1.2-0.3,2.3-0.3,3.5-0.5C12.5,22,12.2,23.4,12,25c0,0,1.1-1.5,2.8-3.6c1.5,1.6,3,3.1,3,3.1C17.5,22.8,17.2,21.4,16.9,20.2">
  </path>
  <path class="st3" d="M28.2,14.9c1.5-0.1,2.4-0.2,2.4-0.2c-0.8-0.3-1.5-0.5-2.2-0.7c0.4-0.5,0.7-0.9,1.2-1.4c0,0-1.1,0.3-1.9,0.8
		c0,0-0.2-0.7-0.5-1.3c0,0-0.3,0.6-0.6,1.5c-1-0.2-1.6-0.3-1.6-0.3c0.4,0.6,0.9,1.1,0.9,1.1c-1,0.6-1.7,1.3-1.7,1.3
		c0.7-0.2,1.2-0.2,1.9-0.3c-0.2,0.7-0.3,1.4-0.4,2.3c0,0,0.6-0.8,1.4-2c0.8,0.9,1.7,1.6,1.7,1.6C28.6,16.3,28.4,15.5,28.2,14.9">
  </path>
 </g>
</svg>