<?xml version="1.0" encoding="utf-8"?>
<!-- Svg Vector Icons : http://www.onlinewebfonts.com/icon -->
<!DOCTYPE svg PUBLIC "-//W3C//DTD SVG 1.1//EN" "http://www.w3.org/Graphics/SVG/1.1/DTD/svg11.dtd">
<svg version="1.1" xmlns="http://www.w3.org/2000/svg" xmlns:xlink="http://www.w3.org/1999/xlink" x="0px" y="0px" viewBox="0 0 256 256" enable-background="new 0 0 256 256" xml:space="preserve">
<metadata> Svg Vector Icons : http://www.onlinewebfonts.com/icon </metadata>
<g><g><g><path fill="#000000" d="M184.2,93.9c-3.4-4.7-7.5-9.6-12.1-14.5c-4.7-5-8.9-9.3-12.6-12.8c-3.7-3.5-7.3-7.1-10.6-10.6c-3.4-3.5-6-7-7.8-10.4c-1.9-3.4-2.8-6.7-2.8-9.9c0-4.6,1.2-8.9,3.7-12.8c2.5-4,5.7-7.1,9.6-9.4c4-2.3,8.1-3.4,12.5-3.4c8.3,0,15,4,20.2,11.9C189.7,14,196.6,10,204.8,10c6.7,0,12.6,2.5,17.7,7.6c5.1,5.1,7.7,11.1,7.7,18.1c0,3.2-0.9,6.5-2.8,9.9c-1.9,3.4-4.5,6.8-7.8,10.4c-3.3,3.5-6.9,7.1-10.6,10.6c-3.7,3.5-7.9,7.8-12.6,12.8C191.8,84.3,187.7,89.2,184.2,93.9z M92.2,205.1c-9.1,0-17.8-1.8-26.1-5.3c-8.3-3.5-15.4-8.3-21.4-14.3c-6-6-10.8-13.2-14.3-21.4c-3.5-8.3-5.3-17-5.3-26.1c0-6.1,0.8-12,2.4-17.8c1.6-5.8,3.9-11.2,6.7-16.1c2.9-4.9,6.4-9.4,10.6-13.6c4.1-4.1,8.6-7.6,13.6-10.6c4.9-2.9,10.3-5.2,16.1-6.7c5.8-1.6,11.7-2.4,17.8-2.4c10.9,0,21.1,2.5,30.6,7.4c9.5,4.9,17.3,11.7,23.5,20.2c-6.7,1.4-13.2,3.7-19.3,6.9c-4.4-4.8-9.7-8.5-15.7-11.2s-12.4-4-19.1-4c-6.5,0-12.7,1.3-18.6,3.8c-5.9,2.5-11,5.9-15.3,10.2c-4.3,4.3-7.7,9.4-10.2,15.3c-2.5,5.9-3.8,12.1-3.8,18.6c0,5.2,0.8,10.2,2.4,15.1c1.6,4.9,3.9,9.3,6.9,13.2c3,3.9,6.4,7.4,10.3,10.3c3.9,3,8.3,5.3,13.2,6.9c4.9,1.6,9.9,2.4,15.1,2.4c9.6,0,18.4-2.6,26.3-7.9c7.9-5.3,13.7-12.2,17.6-20.8c1.7-2,3.8-3.7,6.3-5.2c2.5-1.5,5.1-2.7,7.8-3.5c2.7-0.9,5.6-1.5,8.6-1.8c-1,8.1-3.5,15.8-7.4,23c-3.9,7.2-8.8,13.4-14.6,18.6c-5.8,5.2-12.6,9.3-20.3,12.3C108.6,203.6,100.6,205.1,92.2,205.1z M163.8,246c-10.9,0-21.1-2.5-30.6-7.4c-9.5-4.9-17.3-11.7-23.5-20.2c6.7-1.4,13.2-3.7,19.3-6.9c4.4,4.8,9.7,8.5,15.7,11.2c6,2.7,12.4,4,19.1,4c6.5,0,12.7-1.3,18.6-3.8c5.9-2.5,11-5.9,15.3-10.2c4.3-4.3,7.7-9.4,10.2-15.3c2.5-5.9,3.8-12.1,3.8-18.6c0-6.5-1.3-12.7-3.8-18.6s-5.9-11-10.2-15.3c-4.3-4.3-9.4-7.7-15.3-10.2c-5.9-2.5-12.1-3.8-18.6-3.8c-9.6,0-18.3,2.6-26.1,7.8c-7.9,5.2-13.7,12.1-17.5,20.5c-2.7,3-6,5.4-10,7.3c-4,1.8-8.3,3-12.9,3.6c1-8.1,3.5-15.8,7.4-23c3.9-7.2,8.8-13.4,14.6-18.6c5.8-5.2,12.6-9.3,20.3-12.3c7.7-3,15.8-4.5,24.2-4.5c7.3,0,14.4,1.1,21.2,3.4c6.8,2.2,13,5.5,18.5,9.6c5.5,4.2,10.3,9,14.5,14.5c4.2,5.5,7.4,11.7,9.6,18.5c2.2,6.8,3.4,13.9,3.4,21.2c0,9.1-1.8,17.8-5.3,26.1c-3.5,8.3-8.3,15.4-14.3,21.4c-6,6-13.2,10.8-21.4,14.3C181.6,244.2,172.9,246,163.8,246z"/></g></g></g>
</svg>

