<svg title="Formspree logo" viewBox="0 0 36 36" fill="none" xmlns="http://www.w3.org/2000/svg"><path fill-rule="evenodd" clip-rule="evenodd" d="M0 3a3 3 0 013-3h26a3 3 0 013 3v4.286a3 3 0 01-3 3H3a3 3 0 01-3-3V3zm0 12.857a3 3 0 013-3h26a3 3 0 013 3v4.286a3 3 0 01-3 3H3a3 3 0 01-3-3v-4.286zm3 9.857a3 3 0 00-3 3V33a3 3 0 003 3h12a3 3 0 003-3v-4.286a3 3 0 00-3-3H3z" fill="url(#paint0_linear)"></path><defs><linearGradient id="paint0_linear" x1="0" y1="0" x2="36" y2="36" gradientUnits="userSpaceOnUse"><stop stop-color="#EA1330"></stop><stop offset="1" stop-color="#AF041A"></stop></linearGradient></defs></svg>